<svg width="390" height="326" viewBox="0 0 390 326" fill="none" xmlns="http://www.w3.org/2000/svg">
<g filter="url(#filter0_d_2_514)">
<rect x="37" y="40" width="80" height="80" rx="40" fill="#BFECFF"/>
</g>
<g filter="url(#filter1_bd_2_514)">
<rect x="3" y="5" width="370" height="306" rx="25" fill="#F5FFFC" fill-opacity="0.7" shape-rendering="crispEdges"/>
</g>
<rect x="142" y="60" width="143" height="10" rx="5" fill="#B9D8DA"/>
<rect x="142" y="91" width="108" height="10" rx="5" fill="#B9D8DA"/>
<rect x="303" y="159" width="37" height="127" rx="7" fill="#42A8AD"/>
<rect x="174" y="159" width="37" height="127" rx="7" fill="#42A8AD"/>
<path d="M93 72C93 76.2435 91.3143 80.3131 88.3137 83.3137C85.3131 86.3143 81.2435 88 77 88C72.7565 88 68.6869 86.3143 65.6863 83.3137C62.6857 80.3131 61 76.2435 61 72C61 67.7565 62.6857 63.6869 65.6863 60.6863C68.6869 57.6857 72.7565 56 77 56C81.2435 56 85.3131 57.6857 88.3137 60.6863C91.3143 63.6869 93 67.7565 93 72Z" fill="white"/>
<path fill-rule="evenodd" clip-rule="evenodd" d="M75.368 119.968C54.034 119.112 37 101.544 37 80C37 57.908 54.908 40 77 40C99.092 40 117 57.908 117 80C117 102.092 99.092 120 77 120C76.8173 120.001 76.6347 120.001 76.452 120C76.09 120 75.728 119.988 75.368 119.968ZM51.332 105.24C51.0329 104.381 50.9311 103.466 51.0342 102.562C51.1372 101.659 51.4424 100.79 51.9272 100.021C52.4119 99.251 53.0637 98.6006 53.8342 98.1175C54.6048 97.6344 55.4742 97.3311 56.378 97.23C71.97 95.504 82.126 95.66 97.642 97.266C98.547 97.3602 99.4186 97.6598 100.19 98.1418C100.962 98.6238 101.614 99.2755 102.095 100.047C102.577 100.819 102.877 101.691 102.971 102.596C103.065 103.501 102.951 104.416 102.638 105.27C109.288 98.5418 113.012 89.4599 113 80C113 60.118 96.882 44 77 44C57.118 44 41 60.118 41 80C41 89.832 44.942 98.744 51.332 105.24Z" fill="white"/>
<rect x="217" y="159" width="37" height="127" rx="7" fill="#42A8AD"/>
<rect x="260" y="159" width="37" height="127" rx="7" fill="#42A8AD"/>
<rect x="285" y="159" width="29" height="82" rx="7" fill="#B3F5F8"/>
<rect x="285" y="159" width="29" height="82" rx="7" fill="#B3F5F8"/>
<rect x="285" y="159" width="29" height="82" rx="7" fill="#B3F5F8"/>
<rect x="285" y="159" width="29" height="82" rx="7" fill="#B3F5F8"/>
<rect x="241" y="159" width="29" height="82" rx="7" fill="#B3F5F8"/>
<rect x="241" y="159" width="29" height="82" rx="7" fill="#B3F5F8"/>
<rect x="241" y="159" width="29" height="82" rx="7" fill="#B3F5F8"/>
<rect x="241" y="159" width="29" height="82" rx="7" fill="#B3F5F8"/>
<rect x="200" y="159" width="29" height="82" rx="7" fill="#B3F5F8"/>
<rect x="200" y="159" width="29" height="82" rx="7" fill="#B3F5F8"/>
<rect x="200" y="159" width="29" height="82" rx="7" fill="#B3F5F8"/>
<rect x="200" y="159" width="29" height="82" rx="7" fill="#B3F5F8"/>
<defs>
<filter id="filter0_d_2_514" x="36" y="40" width="88" height="88" filterUnits="userSpaceOnUse" color-interpolation-filters="sRGB">
<feFlood flood-opacity="0" result="BackgroundImageFix"/>
<feColorMatrix in="SourceAlpha" type="matrix" values="0 0 0 0 0 0 0 0 0 0 0 0 0 0 0 0 0 0 127 0" result="hardAlpha"/>
<feOffset dx="3" dy="4"/>
<feGaussianBlur stdDeviation="2"/>
<feComposite in2="hardAlpha" operator="out"/>
<feColorMatrix type="matrix" values="0 0 0 0 0 0 0 0 0 0 0 0 0 0 0 0 0 0 0.25 0"/>
<feBlend mode="normal" in2="BackgroundImageFix" result="effect1_dropShadow_2_514"/>
<feBlend mode="normal" in="SourceGraphic" in2="effect1_dropShadow_2_514" result="shape"/>
</filter>
<filter id="filter1_bd_2_514" x="-12.7" y="-10.7" width="402.7" height="337.4" filterUnits="userSpaceOnUse" color-interpolation-filters="sRGB">
<feFlood flood-opacity="0" result="BackgroundImageFix"/>
<feGaussianBlur in="BackgroundImageFix" stdDeviation="7.85"/>
<feComposite in2="SourceAlpha" operator="in" result="effect1_backgroundBlur_2_514"/>
<feColorMatrix in="SourceAlpha" type="matrix" values="0 0 0 0 0 0 0 0 0 0 0 0 0 0 0 0 0 0 127 0" result="hardAlpha"/>
<feOffset dx="7" dy="5"/>
<feGaussianBlur stdDeviation="5"/>
<feComposite in2="hardAlpha" operator="out"/>
<feColorMatrix type="matrix" values="0 0 0 0 0 0 0 0 0 0 0 0 0 0 0 0 0 0 0.2 0"/>
<feBlend mode="normal" in2="effect1_backgroundBlur_2_514" result="effect2_dropShadow_2_514"/>
<feBlend mode="normal" in="SourceGraphic" in2="effect2_dropShadow_2_514" result="shape"/>
</filter>
</defs>
</svg>
