<svg width="245" height="244" viewBox="0 0 245 244" fill="none" xmlns="http://www.w3.org/2000/svg">
<g filter="url(#filter0_b_2_513)">
<rect width="245" height="244" rx="25" fill="white" fill-opacity="0.33"/>
<rect x="0.5" y="0.5" width="244" height="243" rx="24.5" stroke="white" stroke-opacity="0.53"/>
</g>
<g clip-path="url(#clip0_2_513)">
<mask id="mask0_2_513" style="mask-type:luminance" maskUnits="userSpaceOnUse" x="164" y="163" width="58" height="54">
<path d="M164 163H222V217H164V163Z" fill="white"/>
</mask>
<g mask="url(#mask0_2_513)">
<path fill-rule="evenodd" clip-rule="evenodd" d="M214.768 187.077L183.938 170.482C183.386 170.186 182.761 170.03 182.125 170.03C181.489 170.03 180.864 170.186 180.313 170.482C179.761 170.778 179.304 171.205 178.986 171.718C178.668 172.231 178.5 172.813 178.5 173.405V206.595C178.5 207.187 178.668 207.769 178.986 208.282C179.304 208.795 179.761 209.221 180.313 209.518C180.864 209.814 181.489 209.97 182.125 209.97C182.761 209.97 183.386 209.814 183.938 209.518L214.768 192.923C215.319 192.626 215.777 192.2 216.095 191.687C216.413 191.174 216.58 190.592 216.58 190C216.58 189.408 216.413 188.826 216.095 188.312C215.777 187.799 215.319 187.373 214.768 187.077ZM217.49 197.303C223.526 194.057 223.526 185.943 217.49 182.693L186.66 166.098C180.621 162.848 173.062 166.908 173.062 173.405V206.595C173.062 213.092 180.621 217.152 186.66 213.898L217.49 197.303Z" fill="#1ABFAB"/>
</g>
</g>
<rect x="15" y="18" width="19" height="19" rx="9.5" fill="#65A1FA"/>
<g clip-path="url(#clip1_2_513)">
<path d="M151.04 59.7578C143.947 47.5661 111.879 44.98 108.258 44.6475L104.194 44.3889V119.349C103.255 118.59 102.254 117.91 101.202 117.317C97.4911 115.45 93.4406 114.352 89.2945 114.092C85.1484 113.832 80.9924 114.414 77.0772 115.803C61.8561 120.716 52.0658 134.755 55.243 147.094C55.9511 149.704 57.1891 152.14 58.8799 154.25C60.5706 156.36 62.6778 158.1 65.0703 159.36C69.1717 161.548 73.7589 162.666 78.4072 162.611C82.1479 162.608 85.8642 162.009 89.4166 160.838C103.086 156.441 112.322 144.693 111.805 133.425V68.3659C115.499 68.8092 120.561 69.585 125.918 70.7303C131.221 71.5364 136.315 73.3685 140.917 76.1242C144.612 78.5625 142.321 83.1436 142.136 83.5131C140.37 86.1944 138.314 88.6724 136.004 90.902C135.332 91.5683 134.941 92.467 134.912 93.4129C134.883 94.3587 135.219 95.2796 135.849 95.9855C136.479 96.6915 137.356 97.1287 138.299 97.2071C139.242 97.2854 140.179 96.999 140.917 96.4067C141.693 95.557 161.458 77.6389 151.04 59.7578Z" fill="#3E4E6C"/>
</g>
<defs>
<filter id="filter0_b_2_513" x="-15.7" y="-15.7" width="276.4" height="275.4" filterUnits="userSpaceOnUse" color-interpolation-filters="sRGB">
<feFlood flood-opacity="0" result="BackgroundImageFix"/>
<feGaussianBlur in="BackgroundImageFix" stdDeviation="7.85"/>
<feComposite in2="SourceAlpha" operator="in" result="effect1_backgroundBlur_2_513"/>
<feBlend mode="normal" in="SourceGraphic" in2="effect1_backgroundBlur_2_513" result="shape"/>
</filter>
<clipPath id="clip0_2_513">
<rect width="58" height="54" fill="white" transform="translate(164 163)"/>
</clipPath>
<clipPath id="clip1_2_513">
<rect width="133" height="133" fill="white" transform="translate(34 37)"/>
</clipPath>
</defs>
</svg>
